<svg 
  width="24" 
  height="24" 
  viewBox="0 0 24 24" 
  fill="none" 
  xmlns="http://www.w3.org/2000/svg"
>
  <path 
    fill-rule="evenodd" 
    clip-rule="evenodd" 
    d="M6.75 4.5C6.05964 4.5 5.5 5.05964 5.5 5.75V13.75C5.5 14.1642 5.16421 14.5 4.75 14.5C4.33579 14.5 4 14.1642 4 13.75V5.75C4 4.23122 5.23122 3 6.75 3H13.75C13.9489 3 14.1397 3.07902 14.2803 3.21967L19.2803 8.21967C19.421 8.36032 19.5 8.55109 19.5 8.75V13.75C19.5 14.1642 19.1642 14.5 18.75 14.5C18.3358 14.5 18 14.1642 18 13.75V10.25H14.5C14.0359 10.25 13.5908 10.0656 13.2626 9.73744C12.9344 9.40925 12.75 8.96413 12.75 8.5V4.5H6.75ZM14.25 5.31066L17.6893 8.75H14.5C14.4337 8.75 14.3701 8.72366 14.3232 8.67678C14.2763 8.62989 14.25 8.5663 14.25 8.5V5.31066ZM17.8971 15.0807C16.4174 14.7847 15.2366 15.3515 14.9434 16.4322C14.8077 16.9324 14.9036 17.4797 15.2443 17.9034C15.5915 18.335 16.1314 18.5661 16.75 18.5661C17.0591 18.5661 17.2213 18.6656 17.2894 18.7327C17.3594 18.8019 17.3525 18.8497 17.3511 18.8569C17.3497 18.8638 17.3449 18.8815 17.3214 18.9083C17.2971 18.9361 17.2451 18.9815 17.1432 19.0252C16.9339 19.115 16.5339 19.1864 15.8733 19.0763C15.4647 19.0082 15.0783 19.2842 15.0102 19.6928C14.9421 20.1014 15.2181 20.4878 15.6267 20.5559C16.4661 20.6958 17.1784 20.6422 17.7343 20.4038C18.302 20.1604 18.7094 19.7154 18.8221 19.1503C19.0578 17.9687 17.9995 17.0661 16.75 17.0661C16.5083 17.0661 16.4304 16.9847 16.4132 16.9632C16.3894 16.9337 16.3741 16.8873 16.391 16.825C16.4063 16.7688 16.4581 16.6715 16.6189 16.5951C16.7838 16.5168 17.0943 16.4498 17.6029 16.5516C18.0091 16.6328 18.4042 16.3694 18.4855 15.9632C18.5667 15.557 18.3033 15.1619 17.8971 15.0807ZM11.25 15.0661C11.6642 15.0661 12 15.4019 12 15.8161V17.8161C12 18.5065 12.5596 19.0661 13.25 19.0661H13.75C14.1642 19.0661 14.5 19.4019 14.5 19.8161C14.5 20.2303 14.1642 20.5661 13.75 20.5661H13.25C11.7312 20.5661 10.5 19.3349 10.5 17.8161V15.8161C10.5 15.4019 10.8358 15.0661 11.25 15.0661ZM9.56468 20.3191C9.91187 20.0932 10.0102 19.6286 9.78429 19.2814L8.83564 17.8234L9.80771 16.381C10.0392 16.0375 9.9484 15.5714 9.6049 15.3399C9.26141 15.1084 8.7953 15.1992 8.56381 15.5427L7.9471 16.4578L7.34529 15.5329C7.11938 15.1857 6.6548 15.0874 6.30761 15.3133C5.96042 15.5392 5.8621 16.0038 6.088 16.3509L7.03661 17.8089L6.06453 19.2513C5.83304 19.5948 5.92384 20.0609 6.26734 20.2924C6.61083 20.5239 7.07694 20.4331 7.30843 20.0896L7.92514 19.1744L8.52701 20.0994C8.75291 20.4466 9.21749 20.545 9.56468 20.3191Z" fill="#605F5C"/>
</svg>