<svg
  width="24"
  height="24"
  viewBox="0 0 24 24"
  stroke-width="1.5"
  stroke="#2c3e50"
  fill="none"
  stroke-linecap="round"
  stroke-linejoin="round"
  xmlns="http://www.w3.org/2000/svg"
>
  <path
    stroke="none"
    d="M0 0h24v24H0z"
    fill="none"
  />
  <ellipse
    cx="16"
    cy="6"
    rx="5"
    ry="3"
    fill="none"
  />
  <path
    d="M11 6v4c0 1.657 2.239 3 5 3s5 -1.343 5 -3v-4"
    fill="none"
  />
  <path
    d="M11 10v4c0 1.657 2.239 3 5 3s5 -1.343 5 -3v-4"
    fill="none"
  />
  <path
    d="M11 14v4c0 1.657 2.239 3 5 3s5 -1.343 5 -3v-4"
    fill="none"
  />
  <path
    d="M7 9h-2.5a1.5 1.5 0 0 0 0 3h1a1.5 1.5 0 0 1 0 3h-2.5"
    fill="none"
  />
  <path
    d="M5 15v1m0 -8v1"
    fill="none"
  />
</svg>
