<svg width="24" height="24" viewBox="0 0 24 24" fill="none" xmlns="http://www.w3.org/2000/svg">
<path d="M6 10V4C6 3.73478 6.10536 3.48043 6.29289 3.29289C6.48043 3.10536 6.73478 3 7 3H17C17.2652 3 17.5196 3.10536 17.7071 3.29289C17.8946 3.48043 18 3.73478 18 4V21H10" stroke="#769362" stroke-width="1.5" stroke-linecap="round" stroke-linejoin="round"/>
<path fill-rule="evenodd" clip-rule="evenodd" d="M7 3.75C6.9337 3.75 6.87011 3.77634 6.82322 3.82322C6.77634 3.87011 6.75 3.9337 6.75 4V20.25H17.25V4C17.25 3.93369 17.2237 3.87011 17.1768 3.82322C17.1299 3.77634 17.0663 3.75 17 3.75H7ZM5.76256 2.76256C6.09075 2.43437 6.53587 2.25 7 2.25H17C17.4641 2.25 17.9092 2.43437 18.2374 2.76256C18.5656 3.09075 18.75 3.53587 18.75 4V21C18.75 21.4142 18.4142 21.75 18 21.75H6C5.58579 21.75 5.25 21.4142 5.25 21V4C5.25 3.53587 5.43437 3.09075 5.76256 2.76256Z" fill="#769362"/>
<path fill-rule="evenodd" clip-rule="evenodd" d="M10.75 15.75V20.25H13.25V15.75H10.75ZM9.5673 14.5673C9.77047 14.3641 10.046 14.25 10.3333 14.25H13.6667C13.954 14.25 14.2295 14.3641 14.4327 14.5673C14.6359 14.7705 14.75 15.046 14.75 15.3333V21C14.75 21.4142 14.4142 21.75 14 21.75H10C9.58579 21.75 9.25 21.4142 9.25 21V15.3333C9.25 15.046 9.36414 14.7705 9.5673 14.5673Z" fill="#769362"/>
<path fill-rule="evenodd" clip-rule="evenodd" d="M9.25 7C9.25 6.58579 9.58579 6.25 10 6.25H14C14.4142 6.25 14.75 6.58579 14.75 7C14.75 7.41421 14.4142 7.75 14 7.75H10C9.58579 7.75 9.25 7.41421 9.25 7Z" fill="#769362"/>
<path fill-rule="evenodd" clip-rule="evenodd" d="M9.25 10C9.25 9.58579 9.58579 9.25 10 9.25H14C14.4142 9.25 14.75 9.58579 14.75 10C14.75 10.4142 14.4142 10.75 14 10.75H10C9.58579 10.75 9.25 10.4142 9.25 10Z" fill="#769362"/>
</svg>
