<svg width="13" height="12" viewBox="0 0 13 12" fill="none" xmlns="http://www.w3.org/2000/svg">
<path fill-rule="evenodd" clip-rule="evenodd" d="M11.9801 1.58111C12.273 1.28822 12.273 0.813344 11.9801 0.520451C11.6872 0.227558 11.2124 0.227558 10.9195 0.520451L6.50008 4.93983L2.0807 0.520451C1.78781 0.227558 1.31294 0.227558 1.02004 0.520451C0.72715 0.813344 0.72715 1.28822 1.02004 1.58111L5.43942 6.00049L1.01996 10.4199C0.72707 10.7128 0.72707 11.1877 1.01996 11.4806C1.31286 11.7735 1.78773 11.7735 2.08062 11.4806L6.50008 7.06115L10.9195 11.4806C11.2124 11.7735 11.6873 11.7735 11.9802 11.4806C12.2731 11.1877 12.2731 10.7128 11.9802 10.4199L7.56074 6.00049L11.9801 1.58111Z" fill="#E75D5D"/>
</svg>
