<svg
  width="24"
  height="24"
  viewBox="0 0 24 24"
  fill="current"
  xmlns="http://www.w3.org/2000/svg"
>
  <path
    fill-rule="evenodd"
    clip-rule="evenodd"
    d="M5.75 7C5.75 5.20507 7.20507 3.75 9 3.75C10.7949 3.75 12.25 5.20507 12.25 7C12.25 8.79493 10.7949 10.25 9 10.25C7.20507 10.25 5.75 8.79493 5.75 7ZM9 2.25C6.37665 2.25 4.25 4.37665 4.25 7C4.25 9.62335 6.37665 11.75 9 11.75C11.6234 11.75 13.75 9.62335 13.75 7C13.75 4.37665 11.6234 2.25 9 2.25ZM4.7019 16.7019C5.3114 16.0924 6.13805 15.75 7 15.75H11C11.862 15.75 12.6886 16.0924 13.2981 16.7019C13.9076 17.3114 14.25 18.138 14.25 19V21C14.25 21.4142 14.5858 21.75 15 21.75C15.4142 21.75 15.75 21.4142 15.75 21V19C15.75 17.7402 15.2496 16.532 14.3588 15.6412C13.468 14.7504 12.2598 14.25 11 14.25H7C5.74022 14.25 4.53204 14.7504 3.64124 15.6412C2.75044 16.532 2.25 17.7402 2.25 19V21C2.25 21.4142 2.58579 21.75 3 21.75C3.41421 21.75 3.75 21.4142 3.75 21V19C3.75 18.138 4.09241 17.3114 4.7019 16.7019ZM15.2734 2.94403C15.3761 2.54276 15.7847 2.30076 16.186 2.4035C17.2077 2.66511 18.1133 3.25933 18.76 4.09249C19.4068 4.92566 19.7578 5.95036 19.7578 7.00506C19.7578 8.05977 19.4068 9.08447 18.76 9.91763C18.1133 10.7508 17.2077 11.345 16.186 11.6066C15.7847 11.7094 15.3761 11.4674 15.2734 11.0661C15.1706 10.6648 15.4126 10.2562 15.8139 10.1535C16.513 9.97451 17.1326 9.56793 17.5751 8.99787C18.0176 8.42782 18.2578 7.7267 18.2578 7.00506C18.2578 6.28343 18.0176 5.58231 17.5751 5.01225C17.1326 4.4422 16.513 4.03562 15.8139 3.85663C15.4126 3.75388 15.1706 3.3453 15.2734 2.94403ZM18.1874 14.4234C17.7864 14.3199 17.3773 14.561 17.2738 14.9621C17.1702 15.3632 17.4114 15.7722 17.8124 15.8758C18.507 16.0551 19.1227 16.4592 19.5636 17.025C20.0041 17.5903 20.2454 18.2853 20.2499 19.0019V20.9996C20.2499 21.4138 20.5857 21.7496 20.9999 21.7496C21.4142 21.7496 21.7499 21.4138 21.7499 20.9996L21.75 18.9996L21.7499 18.9953C21.7439 17.9469 21.3912 16.93 20.7468 16.103C20.1024 15.276 19.2025 14.6855 18.1874 14.4234Z"
    fill="current"
    stroke="none"
  />
</svg>
