<svg
  width="24"
  height="24"
  viewBox="0 0 24 24"
  fill="none"
  xmlns="http://www.w3.org/2000/svg"
> 
  <rect
    width="24"
    height="24"
    rx="4"
    fill="#F6F5F3"
  />
  <path
    fill-rule="evenodd"
	clip-rule="evenodd"
	d="M12.6667 7.18288C12.6667 6.89783 12.4428 6.66675 12.1667 6.66675C11.8905 6.66675 11.6667 6.89783 11.6667 7.18288L11.6667 11.5005L7.33333 11.5005C7.05719 11.5005 6.83333 11.7243 6.83333 12.0005C6.83333 12.2766 7.05719 12.5005 7.33333 12.5005L11.6667 12.5005L11.6667 16.8173C11.6667 17.1023 11.8905 17.3334 12.1667 17.3334C12.4428 17.3334 12.6667 17.1023 12.6667 16.8173V12.5005L16.6667 12.5005C16.9428 12.5005 17.1667 12.2766 17.1667 12.0005C17.1667 11.7243 16.9428 11.5005 16.6667 11.5005L12.6667 11.5005L12.6667 7.18288Z"
	fill="#605F5C"
  />
</svg>
