<svg
  width="24"
  height="24"
  viewBox="0 0 24 24"
  fill="none"
  xmlns="http://www.w3.org/2000/svg"
>
  <rect 
    width="24"
	height="24"
	rx="4"
	fill="#F6F5F3"
  />
  <path
  	fill-rule="evenodd"
	clip-rule="evenodd"
	d="M15.6534 9.05424C15.8487 8.85897 15.8487 8.54239 15.6534 8.34713C15.4581 8.15187 15.1416 8.15187 14.9463 8.34713L12.0001 11.2934L9.0538 8.34713C8.85854 8.15187 8.54196 8.15187 8.3467 8.34713C8.15143 8.54239 8.15143 8.85897 8.3467 9.05424L11.2929 12.0005L8.34664 14.9468C8.15138 15.1421 8.15138 15.4586 8.34664 15.6539C8.5419 15.8492 8.85849 15.8492 9.05375 15.6539L12.0001 12.7076L14.9464 15.6539C15.1416 15.8492 15.4582 15.8492 15.6535 15.6539C15.8487 15.4586 15.8487 15.1421 15.6535 14.9468L12.7072 12.0005L15.6534 9.05424Z"
	fill="#605F5C"
  />
</svg>
