<svg width="21" height="21" viewBox="0 0 21 21" fill="none" xmlns="http://www.w3.org/2000/svg">
<path fill-rule="evenodd" clip-rule="evenodd" d="M18.9168 1.91679C17.2885 0.288454 14.7115 0.288454 13.0832 1.91679L10.9619 4.03811L0.355263 14.6447C0.144284 14.8557 0.0257583 15.1418 0.025759 15.4402L0.0257575 19.6829C0.0257583 20.3042 0.529438 20.8079 1.15076 20.8079L5.3934 20.8079C5.69177 20.8079 5.97792 20.6893 6.18889 20.4783L16.7955 9.87175L18.9168 7.75042C20.5452 6.12208 20.5452 3.54513 18.9168 1.91679ZM16 7.48526L17.3258 6.15943C18.0755 5.40977 18.0755 4.25744 17.3258 3.50778C16.5762 2.75812 15.4238 2.75812 14.6742 3.50778L13.3483 4.83361L16 7.48526ZM11.7574 6.4246L14.409 9.07625L4.92741 18.5579H2.27576V15.9062L11.7574 6.4246Z" fill="#605F5C"/>
</svg>
