<svg
  width="24"
  height="24"
  viewBox="0 0 24 24"
  fill="current"
  stroke="current"
  xmlns="http://www.w3.org/2000/svg"
>
  <path
    fill="current"
	fill-rule="evenodd"
	clip-rule="evenodd"
	stroke="none"
	d="M12.3333 7.55556C12.3333 7.24873 12.0846 7 11.7778 7C11.471 7 11.2222 7.24873 11.2222 7.55556V8.48163H11.037C10.4968 8.48163 9.97865 8.69625 9.59664 9.07827C9.21462 9.46029 9 9.97841 9 10.5187C9 11.0589 9.21462 11.5771 9.59664 11.9591C9.97865 12.3411 10.4968 12.5557 11.037 12.5557H12.5185C12.7641 12.5557 12.9996 12.6533 13.1733 12.8269C13.3469 13.0006 13.4445 13.2361 13.4445 13.4816C13.4445 13.7272 13.3469 13.9627 13.1733 14.1364C12.9996 14.31 12.7641 14.4076 12.5185 14.4076H11.7907C11.7864 14.4075 11.7821 14.4074 11.7778 14.4074C11.7735 14.4074 11.7692 14.4075 11.7649 14.4076H11.037C11.0308 14.4076 11.0246 14.4077 11.0183 14.4079C10.8505 14.4135 10.6843 14.3734 10.5375 14.2919C10.3907 14.2103 10.2689 14.0904 10.185 13.9449C10.0318 13.6791 9.69206 13.5878 9.42624 13.7411C9.16042 13.8943 9.06916 14.234 9.2224 14.4998C9.4069 14.8199 9.67498 15.0838 9.99792 15.2632C10.3179 15.441 10.6799 15.5292 11.0457 15.5187H11.2222V16.4445C11.2222 16.7513 11.471 17 11.7778 17C12.0846 17 12.3333 16.7513 12.3333 16.4445V15.5187H12.5185C13.0588 15.5187 13.5769 15.3041 13.9589 14.922C14.3409 14.54 14.5556 14.0219 14.5556 13.4816C14.5556 12.9414 14.3409 12.4233 13.9589 12.0412C13.5769 11.6592 13.0588 11.4446 12.5185 11.4446H11.037C10.7915 11.4446 10.556 11.347 10.3823 11.1734C10.2087 10.9998 10.1111 10.7642 10.1111 10.5187C10.1111 10.2731 10.2087 10.0376 10.3823 9.86394C10.556 9.6903 10.7915 9.59274 11.037 9.59274H12.5185C12.5248 9.59274 12.531 9.59264 12.5372 9.59243C12.705 9.58678 12.8713 9.62688 13.018 9.70843C13.1648 9.78998 13.2867 9.90991 13.3706 10.0554C13.5238 10.3212 13.8635 10.4125 14.1293 10.2592C14.3951 10.106 14.4864 9.76628 14.3332 9.50047C14.1487 9.18041 13.8806 8.91655 13.5576 8.73714C13.2376 8.55936 12.8757 8.47113 12.5099 8.48163H12.3333V7.55556Z"
  />
  <path
    fill="current"
	fill-rule="evenodd"
	clip-rule="evenodd"
	stroke="none"
	d="M12 4.54286C7.88153 4.54286 4.54286 7.88153 4.54286 12C4.54286 16.1185 7.88153 19.4571 12 19.4571C16.1185 19.4571 19.4571 16.1185 19.4571 12C19.4571 7.88153 16.1185 4.54286 12 4.54286ZM3 12C3 7.02944 7.02944 3 12 3C16.9706 3 21 7.02944 21 12C21 16.9706 16.9706 21 12 21C7.02944 21 3 16.9706 3 12Z"
  />
</svg>
