<svg
  width="24"
  height="24"
  viewBox="0 0 24 24"
  fill="current"
  stroke="current"
  xmlns="http://www.w3.org/2000/svg"
>
  <path
    fill-rule="evenodd"
    clip-rule="evenodd"
    d="M11.7045 2.31064C11.8932 2.22979 12.1067 2.22979 12.2954 2.31064L19.2954 5.31064C19.6761 5.47381 19.8525 5.91472 19.6893 6.29544C19.5261 6.67616 19.0852 6.85253 18.7045 6.68936L11.9999 3.81598L5.29539 6.68936C4.91467 6.85253 4.47376 6.67616 4.31059 6.29544C4.14742 5.91472 4.32379 5.47381 4.70451 5.31064L11.7045 2.31064ZM3 9.25C2.58579 9.25 2.25 9.58579 2.25 10C2.25 10.4142 2.58579 10.75 3 10.75H3.25V20.25H3C2.58579 20.25 2.25 20.5858 2.25 21C2.25 21.4142 2.58579 21.75 3 21.75H4H20H21C21.4142 21.75 21.75 21.4142 21.75 21C21.75 20.5858 21.4142 20.25 21 20.25H20.75V10.75H21C21.4142 10.75 21.75 10.4142 21.75 10C21.75 9.58579 21.4142 9.25 21 9.25H20H4H3ZM19.25 10.75V20.25H4.75V10.75H19.25ZM8.75 14C8.75 13.5858 8.41421 13.25 8 13.25C7.58579 13.25 7.25 13.5858 7.25 14V17C7.25 17.4142 7.58579 17.75 8 17.75C8.41421 17.75 8.75 17.4142 8.75 17V14ZM12 13.25C12.4142 13.25 12.75 13.5858 12.75 14V17C12.75 17.4142 12.4142 17.75 12 17.75C11.5858 17.75 11.25 17.4142 11.25 17V14C11.25 13.5858 11.5858 13.25 12 13.25ZM16.75 14C16.75 13.5858 16.4142 13.25 16 13.25C15.5858 13.25 15.25 13.5858 15.25 14V17C15.25 17.4142 15.5858 17.75 16 17.75C16.4142 17.75 16.75 17.4142 16.75 17V14Z"
    fill="current"
    stroke="none"
  />
</svg>
