<svg
  width="24"
  height="24"
  viewBox="0 0 24 24"
  fill="current"
  xmlns="http://www.w3.org/2000/svg"
>
  <path
    fill-rule="evenodd"
    clip-rule="evenodd"
    d="M6 4.75C5.30964 4.75 4.75 5.30964 4.75 6V7C4.75 7.69036 5.30964 8.25 6 8.25H8C8.69036 8.25 9.25 7.69036 9.25 7V6C9.25 5.30964 8.69036 4.75 8 4.75H6ZM3.25 6C3.25 4.48122 4.48122 3.25 6 3.25H8C9.51878 3.25 10.75 4.48122 10.75 6V7C10.75 8.51878 9.51878 9.75 8 9.75H6C4.48122 9.75 3.25 8.51878 3.25 7V6ZM6 13.75C5.30964 13.75 4.75 14.3096 4.75 15V18C4.75 18.6904 5.30964 19.25 6 19.25H8C8.69036 19.25 9.25 18.6904 9.25 18V15C9.25 14.3096 8.69036 13.75 8 13.75H6ZM3.25 15C3.25 13.4812 4.48122 12.25 6 12.25H8C9.51878 12.25 10.75 13.4812 10.75 15V18C10.75 19.5188 9.51878 20.75 8 20.75H6C4.48122 20.75 3.25 19.5188 3.25 18V15ZM14.75 6C14.75 5.30964 15.3096 4.75 16 4.75H18C18.6904 4.75 19.25 5.30964 19.25 6V18C19.25 18.6904 18.6904 19.25 18 19.25H16C15.3096 19.25 14.75 18.6904 14.75 18V6ZM16 3.25C14.4812 3.25 13.25 4.48122 13.25 6V18C13.25 19.5188 14.4812 20.75 16 20.75H18C19.5188 20.75 20.75 19.5188 20.75 18V6C20.75 4.48122 19.5188 3.25 18 3.25H16Z"
    fill="current"
    stroke="none"
  />
</svg>
