<svg width="24" height="24" viewBox="0 0 24 24" fill="none" xmlns="http://www.w3.org/2000/svg">
<path fill-rule="evenodd" clip-rule="evenodd" d="M11.487 2.45285C11.7755 2.18238 12.2245 2.18238 12.513 2.45285L20.513 9.95285C20.6642 10.0946 20.75 10.2927 20.75 10.5V21C20.75 21.4142 20.4142 21.75 20 21.75H4C3.58579 21.75 3.25 21.4142 3.25 21V10.5C3.25 10.2927 3.33581 10.0946 3.48704 9.95285L11.487 2.45285ZM4.75 10.8249V20.25H19.25V10.8249L12 4.02805L4.75 10.8249Z" fill="#605F5C"/>
<path fill-rule="evenodd" clip-rule="evenodd" d="M9.25 10C9.25 9.58579 9.58579 9.25 10 9.25H14C14.4142 9.25 14.75 9.58579 14.75 10C14.75 10.4142 14.4142 10.75 14 10.75H10C9.58579 10.75 9.25 10.4142 9.25 10Z" fill="#605F5C"/>
<path fill-rule="evenodd" clip-rule="evenodd" d="M11 15.75C10.6685 15.75 10.3505 15.8817 10.1161 16.1161C9.8817 16.3505 9.75 16.6685 9.75 17V21C9.75 21.4142 9.41421 21.75 9 21.75C8.58579 21.75 8.25 21.4142 8.25 21V17C8.25 16.2707 8.53973 15.5712 9.05546 15.0555C9.57118 14.5397 10.2707 14.25 11 14.25H13C13.7293 14.25 14.4288 14.5397 14.9445 15.0555C15.4603 15.5712 15.75 16.2707 15.75 17V21C15.75 21.4142 15.4142 21.75 15 21.75C14.5858 21.75 14.25 21.4142 14.25 21V17C14.25 16.6685 14.1183 16.3505 13.8839 16.1161C13.6495 15.8817 13.3315 15.75 13 15.75H11Z" fill="#605F5C"/>
</svg>
