<svg
  width="24"
  height="24"
  viewBox="0 0 24 24"
  fill="current"
  xmlns="http://www.w3.org/2000/svg"
>
  <path
    fill-rule="evenodd"
    clip-rule="evenodd"
    d="M4.32918 2.66459C4.45622 2.4105 4.71592 2.25 5 2.25H19C19.2841 2.25 19.5438 2.4105 19.6708 2.66459L21.6708 6.66459C21.7229 6.76873 21.75 6.88357 21.75 7V8C21.75 8.99456 21.3549 9.94839 20.6517 10.6517C20.3836 10.9197 20.0792 11.1429 19.75 11.3166V20.25H21C21.4142 20.25 21.75 20.5858 21.75 21C21.75 21.4142 21.4142 21.75 21 21.75H15H9H3C2.58579 21.75 2.25 21.4142 2.25 21C2.25 20.5858 2.58579 20.25 3 20.25H4.25V11.3166C3.9208 11.1429 3.61638 10.9197 3.34835 10.6517C2.64509 9.94839 2.25 8.99456 2.25 8V7C2.25 6.88357 2.27711 6.76873 2.32918 6.66459L4.32918 2.66459ZM9.75 20.25H14.25V17C14.25 16.6685 14.1183 16.3505 13.8839 16.1161C13.6495 15.8817 13.3315 15.75 13 15.75H11C10.6685 15.75 10.3505 15.8817 10.1161 16.1161C9.8817 16.3505 9.75 16.6685 9.75 17V20.25ZM15.75 20.25V17C15.75 16.2707 15.4603 15.5712 14.9445 15.0555C14.4288 14.5397 13.7293 14.25 13 14.25H11C10.2707 14.25 9.57118 14.5397 9.05546 15.0555C8.53973 15.5712 8.25 16.2707 8.25 17V20.25H5.75V11.7417C5.83296 11.7472 5.91634 11.75 6 11.75C6.99456 11.75 7.94839 11.3549 8.65165 10.6517C8.78915 10.5142 8.90384 10.3512 9 10.1822C9.09616 10.3512 9.21085 10.5142 9.34835 10.6517C10.0516 11.3549 11.0054 11.75 12 11.75C12.9946 11.75 13.9484 11.3549 14.6517 10.6517C14.7891 10.5142 14.9038 10.3512 15 10.1822C15.0962 10.3512 15.2109 10.5142 15.3483 10.6517C16.0516 11.3549 17.0054 11.75 18 11.75C18.0837 11.75 18.167 11.7472 18.25 11.7417V20.25H15.75ZM9.81643 7.75C9.85023 7.97793 9.897 8.22505 9.95688 8.46985C10.0252 8.74933 10.1061 9.00661 10.1947 9.21572C10.2883 9.43689 10.3681 9.55011 10.409 9.59099C10.831 10.0129 11.4033 10.25 12 10.25C12.5967 10.25 13.169 10.0129 13.591 9.59099C13.6319 9.55011 13.7117 9.43689 13.8053 9.21572C13.8939 9.00661 13.9748 8.74933 14.0431 8.46985C14.103 8.22505 14.1498 7.97793 14.1836 7.75H9.81643ZM8.18357 7.75H3.75V8C3.75 8.59674 3.98705 9.16903 4.40901 9.59099C4.83097 10.0129 5.40326 10.25 6 10.25C6.59674 10.25 7.16903 10.0129 7.59099 9.59099C7.63187 9.55011 7.71168 9.43689 7.80532 9.21572C7.89386 9.00661 7.97475 8.74933 8.04312 8.46985C8.103 8.22505 8.14977 7.97793 8.18357 7.75ZM4.21353 6.25H19.7865L18.5365 3.75H5.46353L4.21353 6.25ZM20.25 7.75H15.8164C15.8502 7.97793 15.897 8.22505 15.9569 8.46985C16.0252 8.74933 16.1061 9.00661 16.1947 9.21572C16.2883 9.43689 16.3681 9.55011 16.409 9.59099C16.831 10.0129 17.4033 10.25 18 10.25C18.5967 10.25 19.169 10.0129 19.591 9.59099C20.0129 9.16903 20.25 8.59674 20.25 8V7.75Z"
    fill="current"
    stroke="none"
  />
</svg>
